<svg xmlns="http://www.w3.org/2000/svg" xmlns:xlink="http://www.w3.org/1999/xlink" version="1.1" id="Layer_1" x="0px" y="0px" viewBox="0 0 100 100" enable-background="new 0 0 100 100" xml:space="preserve"><polygon points="50,51.2 48.7,48.8 51.3,48.8"/><g><polygon points="50.000,51.200 48.700,48.800 51.300,48.800" transform="translate(0,97.600) scale(1,-1)" fill="white"/><polygon points="50.000,51.200 48.700,48.800 51.300,48.800" transform="translate(0,97.600) scale(1, -1)" fill="black"/><polygon points="50.000,51.200 48.700,48.800 51.300,48.800" transform="translate(0,97.600) scale(1, -1)" fill="black"/><polygon points="50.000,51.200 48.700,48.800 51.300,48.800" transform="translate(1.300,-2.400) scale(1, 1)" fill="white"/><polygon points="50.000,51.200 48.700,48.800 51.300,48.800" transform="translate(-1.300,-2.400) scale(1, 1)" fill="black"/><polygon points="50.000,51.200 48.700,48.800 51.300,48.800" transform="translate(0,-4.800) scale(1, 1)" fill="black"/><polygon points="50.000,51.200 48.700,48.800 51.300,48.800" transform="translate(0,-4.800) scale(1, 1)" fill="black"/><polygon points="50.000,51.200 48.700,48.800 51.300,48.800" transform="translate(0,-4.800) scale(1, 1)" fill="black"/><polygon points="50.000,51.200 48.700,48.800 51.300,48.800" transform="translate(1.300,95.200) scale(1, -1)" fill="white"/><polygon points="50.000,51.200 48.700,48.800 51.300,48.800" transform="translate(-1.300,95.200) scale(1, -1)" fill="black"/><polygon points="50.000,51.200 48.700,48.800 51.300,48.800" transform="translate(2.600,-4.800) scale(1, 1)" fill="black"/><polygon points="50.000,51.200 48.700,48.800 51.300,48.800" transform="translate(-2.600,-4.800) scale(1, 1)" fill="black"/><polygon points="50.000,51.200 48.700,48.800 51.300,48.800" transform="translate(0,92.800) scale(1,-1)" fill="black"/><polygon points="50.000,51.200 48.700,48.800 51.300,48.800" transform="translate(0,92.800) scale(1, -1)" fill="white"/><polygon points="50.000,51.200 48.700,48.800 51.300,48.800" transform="translate(0,92.800) scale(1, -1)" fill="white"/><polygon points="50.000,51.200 48.700,48.800 51.300,48.800" transform="translate(1.300,-7.200) scale(1, 1)" fill="white"/><polygon points="50.000,51.200 48.700,48.800 51.300,48.800" transform="translate(-1.300,-7.200) scale(1, 1)" fill="black"/><polygon points="50.000,51.200 48.700,48.800 51.300,48.800" transform="translate(2.600,92.800) scale(1, -1)" fill="white"/><polygon points="50.000,51.200 48.700,48.800 51.300,48.800" transform="translate(-2.600,92.800) scale(1, -1)" fill="black"/><polygon points="50.000,51.200 48.700,48.800 51.300,48.800" transform="translate(3.900,-7.200) scale(1, 1)" fill="black"/><polygon points="50.000,51.200 48.700,48.800 51.300,48.800" transform="translate(-3.900,-7.200) scale(1, 1)" fill="black"/><polygon points="50.000,51.200 48.700,48.800 51.300,48.800" transform="translate(0,-9.600) scale(1, 1)" fill="black"/><polygon points="50.000,51.200 48.700,48.800 51.300,48.800" transform="translate(0,-9.600) scale(1, 1)" fill="black"/><polygon points="50.000,51.200 48.700,48.800 51.300,48.800" transform="translate(0,-9.600) scale(1, 1)" fill="black"/><polygon points="50.000,51.200 48.700,48.800 51.300,48.800" transform="translate(1.300,90.400) scale(1, -1)" fill="white"/><polygon points="50.000,51.200 48.700,48.800 51.300,48.800" transform="translate(-1.300,90.400) scale(1, -1)" fill="white"/><polygon points="50.000,51.200 48.700,48.800 51.300,48.800" transform="translate(2.600,-9.600) scale(1, 1)" fill="black"/><polygon points="50.000,51.200 48.700,48.800 51.300,48.800" transform="translate(-2.600,-9.600) scale(1, 1)" fill="black"/><polygon points="50.000,51.200 48.700,48.800 51.300,48.800" transform="translate(3.900,90.400) scale(1, -1)" fill="black"/><polygon points="50.000,51.200 48.700,48.800 51.300,48.800" transform="translate(-3.900,90.400) scale(1, -1)" fill="white"/><polygon points="50.000,51.200 48.700,48.800 51.300,48.800" transform="translate(5.200,-9.600) scale(1, 1)" fill="white"/><polygon points="50.000,51.200 48.700,48.800 51.300,48.800" transform="translate(-5.200,-9.600) scale(1, 1)" fill="white"/><polygon points="50.000,51.200 48.700,48.800 51.300,48.800" transform="translate(0,88.000) scale(1,-1)" fill="black"/><polygon points="50.000,51.200 48.700,48.800 51.300,48.800" transform="translate(0,88.000) scale(1, -1)" fill="white"/><polygon points="50.000,51.200 48.700,48.800 51.300,48.800" transform="translate(0,88.000) scale(1, -1)" fill="black"/><polygon points="50.000,51.200 48.700,48.800 51.300,48.800" transform="translate(1.300,-12.000) scale(1, 1)" fill="black"/><polygon points="50.000,51.200 48.700,48.800 51.300,48.800" transform="translate(-1.300,-12.000) scale(1, 1)" fill="black"/><polygon points="50.000,51.200 48.700,48.800 51.300,48.800" transform="translate(2.600,88.000) scale(1, -1)" fill="white"/><polygon points="50.000,51.200 48.700,48.800 51.300,48.800" transform="translate(-2.600,88.000) scale(1, -1)" fill="white"/><polygon points="50.000,51.200 48.700,48.800 51.300,48.800" transform="translate(3.900,-12.000) scale(1, 1)" fill="black"/><polygon points="50.000,51.200 48.700,48.800 51.300,48.800" transform="translate(-3.900,-12.000) scale(1, 1)" fill="white"/><polygon points="50.000,51.200 48.700,48.800 51.300,48.800" transform="translate(5.200,88.000) scale(1, -1)" fill="white"/><polygon points="50.000,51.200 48.700,48.800 51.300,48.800" transform="translate(-5.200,88.000) scale(1, -1)" fill="white"/><polygon points="50.000,51.200 48.700,48.800 51.300,48.800" transform="translate(6.500,-12.000) scale(1, 1)" fill="black"/><polygon points="50.000,51.200 48.700,48.800 51.300,48.800" transform="translate(-6.500,-12.000) scale(1, 1)" fill="white"/><polygon points="50.000,51.200 48.700,48.800 51.300,48.800" transform="translate(0,-14.400) scale(1, 1)" fill="black"/><polygon points="50.000,51.200 48.700,48.800 51.300,48.800" transform="translate(0,-14.400) scale(1, 1)" fill="black"/><polygon points="50.000,51.200 48.700,48.800 51.300,48.800" transform="translate(0,-14.400) scale(1, 1)" fill="white"/><polygon points="50.000,51.200 48.700,48.800 51.300,48.800" transform="translate(1.300,85.600) scale(1, -1)" fill="white"/><polygon points="50.000,51.200 48.700,48.800 51.300,48.800" transform="translate(-1.300,85.600) scale(1, -1)" fill="white"/><polygon points="50.000,51.200 48.700,48.800 51.300,48.800" transform="translate(2.600,-14.400) scale(1, 1)" fill="black"/><polygon points="50.000,51.200 48.700,48.800 51.300,48.800" transform="translate(-2.600,-14.400) scale(1, 1)" fill="white"/><polygon points="50.000,51.200 48.700,48.800 51.300,48.800" transform="translate(3.900,85.600) scale(1, -1)" fill="white"/><polygon points="50.000,51.200 48.700,48.800 51.300,48.800" transform="translate(-3.900,85.600) scale(1, -1)" fill="black"/><polygon points="50.000,51.200 48.700,48.800 51.300,48.800" transform="translate(5.200,-14.400) scale(1, 1)" fill="white"/><polygon points="50.000,51.200 48.700,48.800 51.300,48.800" transform="translate(-5.200,-14.400) scale(1, 1)" fill="white"/><polygon points="50.000,51.200 48.700,48.800 51.300,48.800" transform="translate(6.500,85.600) scale(1, -1)" fill="white"/><polygon points="50.000,51.200 48.700,48.800 51.300,48.800" transform="translate(-6.500,85.600) scale(1, -1)" fill="white"/><polygon points="50.000,51.200 48.700,48.800 51.300,48.800" transform="translate(7.800,-14.400) scale(1, 1)" fill="black"/><polygon points="50.000,51.200 48.700,48.800 51.300,48.800" transform="translate(-7.800,-14.400) scale(1, 1)" fill="black"/><polygon points="50.000,51.200 48.700,48.800 51.300,48.800" transform="translate(0,83.200) scale(1,-1)" fill="black"/><polygon points="50.000,51.200 48.700,48.800 51.300,48.800" transform="translate(0,83.200) scale(1, -1)" fill="black"/><polygon points="50.000,51.200 48.700,48.800 51.300,48.800" transform="translate(0,83.200) scale(1, -1)" fill="black"/><polygon points="50.000,51.200 48.700,48.800 51.300,48.800" transform="translate(1.300,-16.800) scale(1, 1)" fill="white"/><polygon points="50.000,51.200 48.700,48.800 51.300,48.800" transform="translate(-1.300,-16.800) scale(1, 1)" fill="white"/><polygon points="50.000,51.200 48.700,48.800 51.300,48.800" transform="translate(2.600,83.200) scale(1, -1)" fill="white"/><polygon points="50.000,51.200 48.700,48.800 51.300,48.800" transform="translate(-2.600,83.200) scale(1, -1)" fill="white"/><polygon points="50.000,51.200 48.700,48.800 51.300,48.800" transform="translate(3.900,-16.800) scale(1, 1)" fill="black"/><polygon points="50.000,51.200 48.700,48.800 51.300,48.800" transform="translate(-3.900,-16.800) scale(1, 1)" fill="white"/><polygon points="50.000,51.200 48.700,48.800 51.300,48.800" transform="translate(5.200,83.200) scale(1, -1)" fill="white"/><polygon points="50.000,51.200 48.700,48.800 51.300,48.800" transform="translate(-5.200,83.200) scale(1, -1)" fill="black"/><polygon points="50.000,51.200 48.700,48.800 51.300,48.800" transform="translate(6.500,-16.800) scale(1, 1)" fill="black"/><polygon points="50.000,51.200 48.700,48.800 51.300,48.800" transform="translate(-6.500,-16.800) scale(1, 1)" fill="black"/><polygon points="50.000,51.200 48.700,48.800 51.300,48.800" transform="translate(7.800,83.200) scale(1, -1)" fill="white"/><polygon points="50.000,51.200 48.700,48.800 51.300,48.800" transform="translate(-7.800,83.200) scale(1, -1)" fill="black"/><polygon points="50.000,51.200 48.700,48.800 51.300,48.800" transform="translate(9.100,-16.800) scale(1, 1)" fill="black"/><polygon points="50.000,51.200 48.700,48.800 51.300,48.800" transform="translate(-9.100,-16.800) scale(1, 1)" fill="white"/><polygon points="50.000,51.200 48.700,48.800 51.300,48.800" transform="translate(0,-19.200) scale(1, 1)" fill="black"/><polygon points="50.000,51.200 48.700,48.800 51.300,48.800" transform="translate(0,-19.200) scale(1, 1)" fill="white"/><polygon points="50.000,51.200 48.700,48.800 51.300,48.800" transform="translate(0,-19.200) scale(1, 1)" fill="white"/><polygon points="50.000,51.200 48.700,48.800 51.300,48.800" transform="translate(1.300,80.800) scale(1, -1)" fill="white"/><polygon points="50.000,51.200 48.700,48.800 51.300,48.800" transform="translate(-1.300,80.800) scale(1, -1)" fill="white"/><polygon points="50.000,51.200 48.700,48.800 51.300,48.800" transform="translate(2.600,-19.200) scale(1, 1)" fill="black"/><polygon points="50.000,51.200 48.700,48.800 51.300,48.800" transform="translate(-2.600,-19.200) scale(1, 1)" fill="white"/><polygon points="50.000,51.200 48.700,48.800 51.300,48.800" transform="translate(3.900,80.800) scale(1, -1)" fill="black"/><polygon points="50.000,51.200 48.700,48.800 51.300,48.800" transform="translate(-3.900,80.800) scale(1, -1)" fill="black"/><polygon points="50.000,51.200 48.700,48.800 51.300,48.800" transform="translate(5.200,-19.200) scale(1, 1)" fill="black"/><polygon points="50.000,51.200 48.700,48.800 51.300,48.800" transform="translate(-5.200,-19.200) scale(1, 1)" fill="black"/><polygon points="50.000,51.200 48.700,48.800 51.300,48.800" transform="translate(6.500,80.800) scale(1, -1)" fill="white"/><polygon points="50.000,51.200 48.700,48.800 51.300,48.800" transform="translate(-6.500,80.800) scale(1, -1)" fill="black"/><polygon points="50.000,51.200 48.700,48.800 51.300,48.800" transform="translate(7.800,-19.200) scale(1, 1)" fill="white"/><polygon points="50.000,51.200 48.700,48.800 51.300,48.800" transform="translate(-7.800,-19.200) scale(1, 1)" fill="white"/><polygon points="50.000,51.200 48.700,48.800 51.300,48.800" transform="translate(9.100,80.800) scale(1, -1)" fill="white"/><polygon points="50.000,51.200 48.700,48.800 51.300,48.800" transform="translate(-9.100,80.800) scale(1, -1)" fill="white"/><polygon points="50.000,51.200 48.700,48.800 51.300,48.800" transform="translate(10.400,-19.200) scale(1, 1)" fill="black"/><polygon points="50.000,51.200 48.700,48.800 51.300,48.800" transform="translate(-10.400,-19.200) scale(1, 1)" fill="white"/><polygon points="50.000,51.200 48.700,48.800 51.300,48.800" transform="translate(0,78.400) scale(1,-1)" fill="white"/><polygon points="50.000,51.200 48.700,48.800 51.300,48.800" transform="translate(0,78.400) scale(1, -1)" fill="white"/><polygon points="50.000,51.200 48.700,48.800 51.300,48.800" transform="translate(0,78.400) scale(1, -1)" fill="black"/><polygon points="50.000,51.200 48.700,48.800 51.300,48.800" transform="translate(1.300,-21.600) scale(1, 1)" fill="white"/><polygon points="50.000,51.200 48.700,48.800 51.300,48.800" transform="translate(-1.300,-21.600) scale(1, 1)" fill="black"/><polygon points="50.000,51.200 48.700,48.800 51.300,48.800" transform="translate(2.600,78.400) scale(1, -1)" fill="black"/><polygon points="50.000,51.200 48.700,48.800 51.300,48.800" transform="translate(-2.600,78.400) scale(1, -1)" fill="black"/><polygon points="50.000,51.200 48.700,48.800 51.300,48.800" transform="translate(3.900,-21.600) scale(1, 1)" fill="black"/><polygon points="50.000,51.200 48.700,48.800 51.300,48.800" transform="translate(-3.900,-21.600) scale(1, 1)" fill="black"/><polygon points="50.000,51.200 48.700,48.800 51.300,48.800" transform="translate(5.200,78.400) scale(1, -1)" fill="white"/><polygon points="50.000,51.200 48.700,48.800 51.300,48.800" transform="translate(-5.200,78.400) scale(1, -1)" fill="white"/><polygon points="50.000,51.200 48.700,48.800 51.300,48.800" transform="translate(6.500,-21.600) scale(1, 1)" fill="black"/><polygon points="50.000,51.200 48.700,48.800 51.300,48.800" transform="translate(-6.500,-21.600) scale(1, 1)" fill="white"/><polygon points="50.000,51.200 48.700,48.800 51.300,48.800" transform="translate(7.800,78.400) scale(1, -1)" fill="white"/><polygon points="50.000,51.200 48.700,48.800 51.300,48.800" transform="translate(-7.800,78.400) scale(1, -1)" fill="black"/><polygon points="50.000,51.200 48.700,48.800 51.300,48.800" transform="translate(9.100,-21.600) scale(1, 1)" fill="white"/><polygon points="50.000,51.200 48.700,48.800 51.300,48.800" transform="translate(-9.100,-21.600) scale(1, 1)" fill="white"/><polygon points="50.000,51.200 48.700,48.800 51.300,48.800" transform="translate(10.400,78.400) scale(1, -1)" fill="white"/><polygon points="50.000,51.200 48.700,48.800 51.300,48.800" transform="translate(-10.400,78.400) scale(1, -1)" fill="white"/><polygon points="50.000,51.200 48.700,48.800 51.300,48.800" transform="translate(11.700,-21.600) scale(1, 1)" fill="white"/><polygon points="50.000,51.200 48.700,48.800 51.300,48.800" transform="translate(-11.700,-21.600) scale(1, 1)" fill="black"/><polygon points="50.000,51.200 48.700,48.800 51.300,48.800" transform="translate(0,-24.000) scale(1, 1)" fill="white"/><polygon points="50.000,51.200 48.700,48.800 51.300,48.800" transform="translate(0,-24.000) scale(1, 1)" fill="black"/><polygon points="50.000,51.200 48.700,48.800 51.300,48.800" transform="translate(0,-24.000) scale(1, 1)" fill="white"/><polygon points="50.000,51.200 48.700,48.800 51.300,48.800" transform="translate(1.300,76.000) scale(1, -1)" fill="white"/><polygon points="50.000,51.200 48.700,48.800 51.300,48.800" transform="translate(-1.300,76.000) scale(1, -1)" fill="white"/><polygon points="50.000,51.200 48.700,48.800 51.300,48.800" transform="translate(2.600,-24.000) scale(1, 1)" fill="white"/><polygon points="50.000,51.200 48.700,48.800 51.300,48.800" transform="translate(-2.600,-24.000) scale(1, 1)" fill="black"/><polygon points="50.000,51.200 48.700,48.800 51.300,48.800" transform="translate(3.900,76.000) scale(1, -1)" fill="white"/><polygon points="50.000,51.200 48.700,48.800 51.300,48.800" transform="translate(-3.900,76.000) scale(1, -1)" fill="white"/><polygon points="50.000,51.200 48.700,48.800 51.300,48.800" transform="translate(5.200,-24.000) scale(1, 1)" fill="white"/><polygon points="50.000,51.200 48.700,48.800 51.300,48.800" transform="translate(-5.200,-24.000) scale(1, 1)" fill="white"/><polygon points="50.000,51.200 48.700,48.800 51.300,48.800" transform="translate(6.500,76.000) scale(1, -1)" fill="white"/><polygon points="50.000,51.200 48.700,48.800 51.300,48.800" transform="translate(-6.500,76.000) scale(1, -1)" fill="black"/><polygon points="50.000,51.200 48.700,48.800 51.300,48.800" transform="translate(7.800,-24.000) scale(1, 1)" fill="white"/><polygon points="50.000,51.200 48.700,48.800 51.300,48.800" transform="translate(-7.800,-24.000) scale(1, 1)" fill="black"/><polygon points="50.000,51.200 48.700,48.800 51.300,48.800" transform="translate(9.100,76.000) scale(1, -1)" fill="black"/><polygon points="50.000,51.200 48.700,48.800 51.300,48.800" transform="translate(-9.100,76.000) scale(1, -1)" fill="black"/><polygon points="50.000,51.200 48.700,48.800 51.300,48.800" transform="translate(10.400,-24.000) scale(1, 1)" fill="black"/><polygon points="50.000,51.200 48.700,48.800 51.300,48.800" transform="translate(-10.400,-24.000) scale(1, 1)" fill="black"/><polygon points="50.000,51.200 48.700,48.800 51.300,48.800" transform="translate(11.700,76.000) scale(1, -1)" fill="white"/><polygon points="50.000,51.200 48.700,48.800 51.300,48.800" transform="translate(-11.700,76.000) scale(1, -1)" fill="white"/><polygon points="50.000,51.200 48.700,48.800 51.300,48.800" transform="translate(13.000,-24.000) scale(1, 1)" fill="black"/><polygon points="50.000,51.200 48.700,48.800 51.300,48.800" transform="translate(-13.000,-24.000) scale(1, 1)" fill="white"/></g></svg>